<svg id="Layer_5" data-name="Layer 5" xmlns="http://www.w3.org/2000/svg" viewBox="0 0 402.57 402.83"><defs><style>.cls-1{fill:#fff;}</style></defs><title>meeting-room-white</title><path class="cls-1" d="M431.72,326.35a59,59,0,0,0-32.21-68.19l-42.78-20a35.81,35.81,0,0,0-7.59-2.53A35.34,35.34,0,0,0,362,208.39V161.18a59.1,59.1,0,0,0-48.19-58c-5-27.41-28.9-49-58-49s-53,21.58-58,49a59.09,59.09,0,0,0-48.19,58v47.21a35.36,35.36,0,0,0,12.86,27.28,35.91,35.91,0,0,0-7.58,2.53l-42.78,19.95a59,59,0,0,0-32.22,68.2c-23.06,16.28-32.09,46.92-20,73s41.65,39.9,69,33a59.09,59.09,0,0,0,73,19.2l42.78-20a34.06,34.06,0,0,0,11.15-8.33A34.21,34.21,0,0,0,267,431.52l42.78,20a59.11,59.11,0,0,0,73-19.2c27,6.87,56.67-6.6,69-33C463.82,373.27,454.79,342.63,431.72,326.35Zm-85-66.75,42.79,19.95a35.46,35.46,0,0,1,20.08,37.09A59,59,0,0,0,344,349.38l19.93-42.73A11.8,11.8,0,0,0,358.17,291l-21.39-10a11.8,11.8,0,0,1,10-21.39Zm-91-181.82c19.2,0,35.41,16.57,35.41,36.19a35.41,35.41,0,1,1-70.81,0C220.39,94.35,236.6,77.78,255.79,77.78Zm-82.61,83.4a35.46,35.46,0,0,1,25.14-33.88,59,59,0,0,0,115,0,35.46,35.46,0,0,1,25.14,33.88v47.21a11.81,11.81,0,0,1-23.61,0V184.78A11.8,11.8,0,0,0,303,173H208.59a11.8,11.8,0,0,0-11.81,11.8v23.61a11.8,11.8,0,0,1-23.6,0V161.18ZM122.05,279.55l42.79-19.95a11.8,11.8,0,1,1,10,21.39l-21.39,10a11.81,11.81,0,0,0-5.71,15.69l19.94,42.75A59,59,0,0,0,102,316.63,35.46,35.46,0,0,1,122.05,279.55Zm7.09,127.7c-17.72,8.26-39.55-.14-47.84-17.91-8.17-17.53-.13-38.64,17.92-47.06a35.39,35.39,0,0,1,47.05,17.13C154.54,377.15,146.7,399.06,129.14,407.25Zm105.53,2.88-42.79,19.95a35.46,35.46,0,0,1-41.34-8.47,60.11,60.11,0,0,0,17.14-72.14l19.93,42.75a11.82,11.82,0,0,0,15.69,5.71l21.39-10a11.81,11.81,0,0,1,15.69,5.71C243.19,399.7,240.52,407.4,234.67,410.13Zm21.12-35.4a35.39,35.39,0,0,0-41.08-8.17l-10.69,5-29.93-64.18,10.7-5a35.45,35.45,0,0,0,17.12-47A35.09,35.09,0,0,0,192.38,243a35.47,35.47,0,0,0,28-34.62V196.58H291.2v11.81a35.47,35.47,0,0,0,28,34.62,35,35,0,0,0-9.53,12.32,35.45,35.45,0,0,0,17.12,47l10.7,5-29.93,64.18-10.69-5A35.41,35.41,0,0,0,255.79,374.73Zm63.92,55.35-42.79-19.95c-5.86-2.73-8.52-10.43-5.71-16.47A11.82,11.82,0,0,1,286.9,388l21.39,10A11.82,11.82,0,0,0,324,392.22l19.92-42.74a60.12,60.12,0,0,0,17.15,72.13A35.46,35.46,0,0,1,319.71,430.08Zm110.57-40.74c-8.28,17.75-30.1,26.18-47.84,17.91-17.55-8.19-25.4-30.1-17.12-47.84a35.38,35.38,0,0,1,47.05-17.13C430.42,350.7,438.46,371.81,430.28,389.34Z" transform="translate(-54.51 -54.17)"/><circle class="cls-1" cx="201.63" cy="59.36" r="35.75"/><circle class="cls-1" cx="343.24" cy="320.53" r="35.75"/><circle class="cls-1" cx="59.33" cy="320.53" r="35.75"/></svg>