<svg id="Layer_2" data-name="Layer 2" xmlns="http://www.w3.org/2000/svg" viewBox="0 0 455.11 274.06"><defs><style>.cls-1{fill:#fff;}</style></defs><title>webcam-white</title><path class="cls-1" d="M452.14,364.52,347.43,326.76a16.49,16.49,0,0,1-10.9-15.51V200.7a16.49,16.49,0,0,1,10.9-15.51l104.71-37.75A16.49,16.49,0,0,1,474.23,163V349A16.5,16.5,0,0,1,452.14,364.52Z" transform="translate(-29.05 -118.94)"/><path class="cls-1" d="M457.73,375.42a26.62,26.62,0,0,1-9-1.56h0L344.06,336.1a26.48,26.48,0,0,1-17.46-24.85V200.7a26.49,26.49,0,0,1,17.46-24.85l104.71-37.76A26.42,26.42,0,0,1,484.15,163V349a26.41,26.41,0,0,1-26.42,26.42Zm0-219a6.5,6.5,0,0,0-2.23.4L350.8,194.53a6.6,6.6,0,0,0-4.34,6.17V311.25a6.6,6.6,0,0,0,4.34,6.17l104.71,37.75A6.56,6.56,0,0,0,464.3,349V163a6.53,6.53,0,0,0-2.79-5.37A6.68,6.68,0,0,0,457.74,156.38Z" transform="translate(-29.05 -118.94)"/><path class="cls-1" d="M288.48,393H86a57.05,57.05,0,0,1-57-57V175.93a57.05,57.05,0,0,1,57-57H288.48a57.05,57.05,0,0,1,57,57V336A57.05,57.05,0,0,1,288.48,393ZM86,138.8a37.17,37.17,0,0,0-37.13,37.13V336A37.17,37.17,0,0,0,86,373.14H288.48A37.17,37.17,0,0,0,325.61,336V175.93a37.17,37.17,0,0,0-37.13-37.13Z" transform="translate(-29.05 -118.94)"/><path class="cls-1" d="M274.54,349.81H104.67a11.88,11.88,0,0,1,0-23.75H274.54a11.88,11.88,0,1,1,0,23.75Z" transform="translate(-29.05 -118.94)"/></svg>