<svg id="Layer_8" data-name="Layer 8" xmlns="http://www.w3.org/2000/svg" viewBox="0 0 479.13 421.97"><defs><style>.cls-1{fill:#fff;}</style></defs><title>white-board-white</title><path class="cls-1" d="M444.68,352.68H64.46V86.78H444.68ZM90.15,327H419V112.47H90.15Z" transform="translate(-16.93 -45.03)"/><rect class="cls-1" x="12.85" y="9.61" width="453.44" height="47.58" rx="3.12" ry="3.12"/><path class="cls-1" d="M451.43,111.83H61.57c-24.61,0-44.64-15-44.64-33.4S37,45,61.57,45H451.43c24.61,0,44.64,15,44.64,33.4S476,111.83,451.43,111.83ZM61.57,64.25c-10.45,0-19,6.36-19,14.18s8.5,14.18,19,14.18H451.43c10.45,0,18.95-6.36,18.95-14.18s-8.5-14.18-18.95-14.18Z" transform="translate(-16.93 -45.03)"/><rect class="cls-1" x="12.85" y="290.31" width="453.44" height="41.75" rx="2.05" ry="2.05"/><path class="cls-1" d="M462.35,385.43H50.65a29.22,29.22,0,1,1,0-58.44h411.7a29.22,29.22,0,0,1,0,58.44ZM50.65,343.68a12.53,12.53,0,0,0,0,25.05h411.7a12.53,12.53,0,0,0,0-25.05Z" transform="translate(-16.93 -45.03)"/><path class="cls-1" d="M185.85,467a12.84,12.84,0,0,1-8.73-22.26l70.65-65.52a12.84,12.84,0,1,1,17.46,18.84l-70.65,65.51A12.75,12.75,0,0,1,185.85,467Z" transform="translate(-16.93 -45.03)"/><path class="cls-1" d="M333.57,467a12.75,12.75,0,0,1-8.73-3.43l-70.65-65.51a12.85,12.85,0,1,1,17.47-18.84l70.65,65.52A12.84,12.84,0,0,1,333.57,467Z" transform="translate(-16.93 -45.03)"/></svg>