<svg xmlns="http://www.w3.org/2000/svg" viewBox="0 0 955 804.53"><defs><style>.cls-1{isolation:isolate;}.cls-2{fill:#ececec;}.cls-3{fill:#f0f0f0;}.cls-4{fill:#f5f5f5;}.cls-5{fill:#e1e1e1;}.cls-10,.cls-16,.cls-17,.cls-6,.cls-9{fill:#fff;}.cls-7{fill:#007cff;}.cls-20,.cls-8{fill:#1a2e35;}.cls-23,.cls-9{opacity:0.1;}.cls-10,.cls-11{opacity:0.2;}.cls-12{fill:#80acfd;}.cls-13{fill:#417bfd;}.cls-14{fill:#ba221f;}.cls-15{fill:#cd5b51;}.cls-16,.cls-18,.cls-20{opacity:0.3;}.cls-17{opacity:0.4;}.cls-19{opacity:0.5;}.cls-21{fill:#ffc3bd;}.cls-22{fill:#ff847f;}.cls-24{mix-blend-mode:multiply;}.cls-25{fill:#80bffd;}.cls-26{fill:#455459;}.cls-27{fill:#09a69e;}.cls-28{fill:#037e84;}.cls-29{fill:#23d2b6;}.cls-30{fill:#d6dcf8;}.cls-31{fill:#003eb6;}</style></defs><title>Video-Conference-banner</title><g class="cls-1"><g id="Layer_1" data-name="Layer 1"><rect class="cls-2" y="603.38" width="955" height="0.48"/><rect class="cls-2" x="757.95" y="634.12" width="101.36" height="0.48"/><rect class="cls-2" x="520.58" y="628.14" width="112.05" height="0.48"/><rect class="cls-2" x="726.17" y="625.38" width="36.66" height="0.48"/><rect class="cls-2" x="191.9" y="619.59" width="82.5" height="0.48"/><rect class="cls-2" x="151.77" y="619.59" width="29.5" height="0.48"/><rect class="cls-2" x="251.11" y="627.66" width="103.51" height="0.48"/><rect class="cls-3" x="1461.42" y="573.02" width="20.07" height="238.81" transform="translate(1990.91 1160.25) rotate(180)"/><rect class="cls-3" x="1075.66" y="811.83" width="398.12" height="15.92" transform="translate(1597.45 1414.97) rotate(180)"/><rect class="cls-4" x="115.96" y="348.41" width="393.46" height="238.81"/><rect class="cls-5" x="1466.14" y="557.97" width="20.74" height="15.05" transform="translate(2001.03 906.38) rotate(180)"/><rect class="cls-2" x="110.56" y="333.36" width="403.58" height="15.05"/><rect class="cls-6" x="131.74" y="366.95" width="361.9" height="82.38" rx="7.78" ry="7.78"/><rect class="cls-6" x="131.74" y="473.92" width="361.9" height="82.38" rx="7.78" ry="7.78"/><rect class="cls-4" x="1175.78" y="589.06" width="177.82" height="11.3" rx="1.77" ry="1.77" transform="translate(1577.37 964.8) rotate(180)"/><rect class="cls-4" x="1175.78" y="696.03" width="177.82" height="11.3" rx="1.77" ry="1.77" transform="translate(1577.37 1178.75) rotate(180)"/><ellipse id="_Path_" data-name="&lt;Path&gt;" class="cls-4" cx="477.5" cy="668.01" rx="370.33" ry="21.63"/><path class="cls-7" d="M1692.73,602.27h-529.6a6.38,6.38,0,0,1-6.36-6.36h0a6.38,6.38,0,0,1,6.36-6.36h529.6a6.38,6.38,0,0,1,6.36,6.36h0A6.38,6.38,0,0,1,1692.73,602.27Z" transform="translate(-952 -224.61)"/><polygon class="cls-8" points="721.36 659.19 733.56 659.19 733.05 377.66 716.17 377.66 721.36 659.19"/><polygon class="cls-9" points="721.36 659.19 733.56 659.19 733.05 377.66 716.17 377.66 721.36 659.19"/><polygon class="cls-8" points="609.06 659.19 596.86 659.19 624.43 377.66 641.31 377.66 609.06 659.19"/><polygon class="cls-10" points="609.06 659.19 596.86 659.19 624.43 377.66 641.31 377.66 609.06 659.19"/><polygon class="cls-8" points="315.74 659.19 327.94 659.19 327.43 377.66 310.55 377.66 315.74 659.19"/><polygon class="cls-9" points="315.74 659.19 327.94 659.19 327.43 377.66 310.55 377.66 315.74 659.19"/><polygon class="cls-8" points="203.43 659.19 191.23 659.19 218.81 377.66 235.69 377.66 203.43 659.19"/><polygon class="cls-10" points="203.43 659.19 191.23 659.19 218.81 377.66 235.69 377.66 203.43 659.19"/><polygon class="cls-8" points="546.47 364.94 518.36 364.94 507.1 309.96 535.21 309.96 546.47 364.94"/><path class="cls-8" d="M1535.78,578.22h-122a6.87,6.87,0,0,1-6.91-7.35l4.66-77.22a7.94,7.94,0,0,1,7.8-7.36h122a6.87,6.87,0,0,1,6.91,7.36l-4.66,77.22A8,8,0,0,1,1535.78,578.22Z" transform="translate(-952 -224.61)"/><path class="cls-7" d="M1533.87,578.22h-122a6.87,6.87,0,0,1-6.91-7.35l4.66-77.22a7.94,7.94,0,0,1,7.8-7.36h122a6.87,6.87,0,0,1,6.91,7.36l-4.66,77.22A8,8,0,0,1,1533.87,578.22Z" transform="translate(-952 -224.61)"/><path class="cls-6" d="M1411.88,574.4a3,3,0,0,1-3.1-3.3l4.66-77.22a4.12,4.12,0,0,1,4-3.77h122a3.05,3.05,0,0,1,3.09,3.31l-4.66,77.22a4.09,4.09,0,0,1-4,3.76Z" transform="translate(-952 -224.61)"/><polygon class="cls-11" points="513.45 261.68 521.37 288.82 544.9 261.68 513.45 261.68"/><rect class="cls-4" x="485.66" y="281.93" width="77.71" height="51.43" rx="4.94" ry="4.94"/><path class="cls-12" d="M1496.71,522.78a1.59,1.59,0,0,0-1.59-.11l-9.36,4.14V538l9.36,4a1.5,1.5,0,0,0,.68.11,2,2,0,0,0,1-.28,1.8,1.8,0,0,0,.74-1.42V524.2A1.63,1.63,0,0,0,1496.71,522.78Z" transform="translate(-952 -224.61)"/><path class="cls-13" d="M1486.1,526.76v-3.13a2.81,2.81,0,0,0-2.83-2.83h-24.91a2.81,2.81,0,0,0-2.84,2.83v17.25a2.81,2.81,0,0,0,2.84,2.84h24.91a2.81,2.81,0,0,0,2.83-2.84V526.76Z" transform="translate(-952 -224.61)"/><path class="cls-8" d="M1275.85,420.44c.18,1.46,1.1,2.58,2.06,2.5s1.6-1.35,1.42-2.81-1.11-2.59-2.07-2.5S1275.66,419,1275.85,420.44Z" transform="translate(-952 -224.61)"/><path class="cls-14" d="M1277.45,422.59s3.27,7.18,6.61,10.6c-2.11,2.13-5.94,1.26-5.94,1.26Z" transform="translate(-952 -224.61)"/><path class="cls-8" d="M1271.05,414.79a.9.9,0,0,1-.43-.05.87.87,0,0,1-.48-1.13,8.3,8.3,0,0,1,5.9-5.14.85.85,0,0,1,1,.7.86.86,0,0,1-.7,1,6.6,6.6,0,0,0-4.6,4.09A.84.84,0,0,1,1271.05,414.79Z" transform="translate(-952 -224.61)"/><path class="cls-15" d="M1232.56,443.45l11.48,8.78,15.64,12c-.57.61-1.27,3.6-1.53,5.71-.55,4.4-1.1,7.74,8.65,10.34a5.55,5.55,0,0,1,4.17,4.33c.39,2.6-1.21,5.81-10.22,7.29-10.44,1.71-18.85-1.17-25.45-4.35-3.83-1.83-3.92-4.19-2.23-8.07C1237.87,468.45,1235.54,454.4,1232.56,443.45Z" transform="translate(-952 -224.61)"/><path class="cls-7" d="M1219.42,483a78.44,78.44,0,0,0,5.41-13.21s29.05-1.59,38.64,1.27S1279,486.29,1279,486.29Z" transform="translate(-952 -224.61)"/><path class="cls-15" d="M1231.55,504.55c-.71,2.14-1.5,4.75-2.24,7.17l-2.15,7.44c-1.35,5-2.63,10-3.66,14.92a145.6,145.6,0,0,0-2.46,14.71,69.52,69.52,0,0,0-.42,13.69,30.5,30.5,0,0,0,.88,5.64c.12.38.21.81.34,1.17s.26.67.38,1l0,.07s0,.07,0-.07a5.84,5.84,0,0,0-.33-.53,7.28,7.28,0,0,0-.62-.81,5,5,0,0,0-.85-.78c-.38-.26-.43-.22-.35-.13a8.46,8.46,0,0,0,1.79,1c.87.39,1.88.77,3,1.14,2.17.71,4.56,1.38,7,2,9.87,2.49,20.61,4.41,31.09,6.65l-.34,13.24a163.16,163.16,0,0,1-16.88,1.38,154.68,154.68,0,0,1-17.18-.28,82.7,82.7,0,0,1-9-1.1c-1.58-.29-3.19-.62-4.92-1.09a31.15,31.15,0,0,1-5.75-2.12,21.24,21.24,0,0,1-3.76-2.39,16.63,16.63,0,0,1-2.3-2.22,15.7,15.7,0,0,1-1.22-1.63c-.2-.32-.4-.64-.59-1l-.24-.46-1.32-2.69c-.4-.9-.72-1.78-1.07-2.67a53.77,53.77,0,0,1-2.59-10.32c-1.81-13.28-.4-25.1,1.58-36.62,1.07-5.74,2.33-11.37,3.85-16.91.75-2.78,1.55-5.53,2.42-8.27s1.77-5.37,2.87-8.37Z" transform="translate(-952 -224.61)"/><path class="cls-7" d="M1213.88,480.58c18.06-4.77,28.76,10,22.65,34.44s-8.15,25.28-8.15,25.28l-37.24-6.21C1195.73,510.07,1195.38,485.46,1213.88,480.58Z" transform="translate(-952 -224.61)"/><path class="cls-15" d="M1272.19,573.69l-2.81-.25c-8,0-9.34,2.18-14.26,6.75l-1.83,10c12.89,6.6,19.81-.64,19.81-.64h12l-4.21-9.65A10.49,10.49,0,0,0,1272.19,573.69Z" transform="translate(-952 -224.61)"/><path class="cls-15" d="M1227.64,424.44c3.24,17.4,4.26,27.77,14.22,35.53,15,11.67,35.61.58,37.62-17.53,1.82-16.3-3.8-42-21.81-46.58C1239.93,391.36,1224.39,407,1227.64,424.44Z" transform="translate(-952 -224.61)"/><path class="cls-8" d="M1262.11,430.53c12.42-1,8.79-14.08,5-16.83,5.82-2.19,9.84-11.42,4.23-17.8,3.28-8.57-6.1-18.9-22.58-17.36-12,1.13-13.41,7.47-13.41,7.47s-14.44-1.51-20.42,10.4c-5.12,10.2,1.08,15.65,1.08,15.65s-10.77,3.13-7.8,17.25C1211.35,444.47,1223,441,1223,441s-2.61,13.9,13.14,14.1c13.62.17,13.78-10,13.78-10S1267.61,443.28,1262.11,430.53Z" transform="translate(-952 -224.61)"/><path class="cls-15" d="M1252.87,431.54a16.21,16.21,0,0,0,7.55,8.66c4.55,2.33,8-2.51,7.22-7.45-.72-4.46-4.6-10.17-9.39-10.44S1251.17,426.91,1252.87,431.54Z" transform="translate(-952 -224.61)"/><polygon class="cls-15" points="486.04 637.32 503.01 630.43 491.03 589.64 474.05 596.53 486.04 637.32"/><polygon class="cls-11" points="479.86 616.3 497.01 610.01 491.03 589.64 474.05 596.53 479.86 616.3"/><path class="cls-8" d="M1453.54,848.13l-19.41,6.76a1.31,1.31,0,0,0-.87,1.63l4.4,15.68a3.24,3.24,0,0,0,4.1,2c6.72-2.46,9.42-3.82,17.72-7.39,5.1-2.2,17.29-7.52,23.91-11.42,6.47-3.82,2.57-10.34-.58-9.27-7.47,2.52-19.71,4.15-25.92,2A5.26,5.26,0,0,0,1453.54,848.13Z" transform="translate(-952 -224.61)"/><path class="cls-8" d="M1301.66,626.58s128.34,11.56,131.62,48.48c6.69,75.12,16.93,147.55,16.93,147.55l-26.1,9.55s-32-82.53-31.54-141.39c-37-10.45-134.33,4.89-150.25-23.66-14-25.21-1.72-43.31-1.72-43.31Z" transform="translate(-952 -224.61)"/><polygon class="cls-7" points="470.2 613.49 502.71 602.51 501.29 587.69 464.65 599.5 470.2 613.49"/><polygon class="cls-15" points="395.17 649.45 413.32 648.59 416.29 605.74 398.14 606.6 395.17 649.45"/><path class="cls-8" d="M1365.74,870.1l-20.55-.65a1.3,1.3,0,0,0-1.39,1.21l-1.51,16.22a3.23,3.23,0,0,0,3.09,3.35c7.16.11,10.59-.21,19.62.08,5.56.18,16.5,1,24.12,0,7.45-.94,6.45-8.47,3.14-8.74-7.85-.64-18.38-6.07-23.41-10.29A5.19,5.19,0,0,0,1365.74,870.1Z" transform="translate(-952 -224.61)"/><polygon class="cls-11" points="398.14 606.61 416.29 605.75 414.58 630.26 396.49 630.23 398.14 606.61"/><path class="cls-8" d="M1259,624.64s138.28,21.13,136.08,53C1391.17,734.93,1372,846.9,1372,846.9l-27.24.38s-6.43-114.86,3.77-156.72c-34,0-130-1.19-143.06-18.68-14.47-19.31.41-49.66.41-49.66Z" transform="translate(-952 -224.61)"/><polygon class="cls-7" points="389.51 624.8 422.47 624.29 424.09 606.87 387.93 608.29 389.51 624.8"/><path class="cls-7" d="M1283.39,478.65c-11.13-2.17-61.36-1.55-61.36-1.55a20,20,0,0,0-20.46,17.73c-1.76,15.49,8.07,50.1,8.41,67.76.42,21.68-3.72,30.46-4.14,59.63l95.82,4.36c0-58.69-2.55-107.29-4.87-130.59C1296,487.9,1294.51,480.81,1283.39,478.65Z" transform="translate(-952 -224.61)"/><path class="cls-16" d="M1283.39,478.65c-11.13-2.17-61.36-1.55-61.36-1.55a20,20,0,0,0-20.46,17.73c-1.76,15.49,8.07,50.1,8.41,67.76.42,21.68-3.72,30.46-4.14,59.63l95.82,4.36c0-58.69-2.55-107.29-4.87-130.59C1296,487.9,1294.51,480.81,1283.39,478.65Z" transform="translate(-952 -224.61)"/><path class="cls-15" d="M1296.51,497.15c3,10.31,6,20.9,9.13,31.26s6.3,20.76,9.9,30.6c.87,2.51,1.82,4.84,2.75,7.24l1.46,3.38.18.42.1.21,0,.11,0,0-.07-.13a7.12,7.12,0,0,0-1.22-1.61c-.66-.64-.91-.69-1-.68a4.55,4.55,0,0,0,1.44.89,25.79,25.79,0,0,0,2.89,1.17c2.16.74,4.57,1.41,7,2.08,10,2.54,20.88,4.49,31.51,6.76l-.34,13.24a165,165,0,0,1-17.12,1.39,155,155,0,0,1-17.45-.33,80.19,80.19,0,0,1-9.21-1.19,49.44,49.44,0,0,1-5.06-1.2,27.16,27.16,0,0,1-6.11-2.52,18.54,18.54,0,0,1-4.2-3.23,15.6,15.6,0,0,1-2.45-3.27l-.65-1.21-2.16-4.09c-1.27-2.67-2.63-5.37-3.75-8-2.37-5.35-4.42-10.66-6.48-16s-3.85-10.67-5.61-16c-3.52-10.74-6.71-21.39-9.48-32.44Z" transform="translate(-952 -224.61)"/><path class="cls-7" d="M1269.3,486.5c13.1-13.31,29.84-6.06,37,18.07s5.89,25.9,5.89,25.9L1277,544.12C1268.73,521.12,1255.88,500.13,1269.3,486.5Z" transform="translate(-952 -224.61)"/><path class="cls-15" d="M1370,573.69l-2.81-.25c-8,0-9.34,2.18-14.26,6.75l-1.83,10c12.89,6.6,19.81-.64,19.81-.64h12l-4.21-9.65A10.49,10.49,0,0,0,1370,573.69Z" transform="translate(-952 -224.61)"/><rect class="cls-7" x="1205.18" y="679.92" width="132.13" height="17.6" rx="2.55" ry="2.55" transform="translate(1590.48 1152.83) rotate(180)"/><polygon class="cls-7" points="258.6 669 253.18 669 259.42 472.91 266.91 472.91 258.6 669"/><polygon class="cls-17" points="258.6 669 253.18 669 259.42 472.91 266.91 472.91 258.6 669"/><polygon class="cls-7" points="308.49 669 313.91 669 307.67 472.91 300.17 472.91 308.49 669"/><polygon class="cls-17" points="308.49 669 313.91 669 307.67 472.91 300.17 472.91 308.49 669"/><polygon class="cls-7" points="329.99 669 324.57 669 330.81 472.91 338.31 472.91 329.99 669"/><polygon class="cls-17" points="329.99 669 324.57 669 330.81 472.91 338.31 472.91 329.99 669"/><polygon class="cls-7" points="379.89 669 385.31 669 379.07 472.91 371.57 472.91 379.89 669"/><polygon class="cls-17" points="379.89 669 385.31 669 379.07 472.91 371.57 472.91 379.89 669"/><g class="cls-18"><polygon class="cls-7" points="259.41 472.9 266.92 472.9 266.57 481.24 259.14 481.24 259.41 472.9"/><polygon class="cls-7" points="307.94 481.24 300.52 481.24 300.18 472.9 307.67 472.9 307.94 481.24"/><polygon class="cls-7" points="338.31 472.9 337.96 481.24 330.55 481.24 330.81 472.9 338.31 472.9"/><polygon class="cls-7" points="379.34 481.24 371.91 481.24 371.56 472.9 379.07 472.9 379.34 481.24"/></g><path class="cls-7" d="M1694.91,457.85H1389.06a17.21,17.21,0,0,1-17.33-18.43l11.68-193.61A19.91,19.91,0,0,1,1403,227.37h305.85a17.2,17.2,0,0,1,17.32,18.44l-11.67,193.61A19.91,19.91,0,0,1,1694.91,457.85Z" transform="translate(-952 -224.61)"/><polygon class="cls-7" points="478 192.3 506.21 288.83 589.91 192.3 478 192.3"/><path class="cls-9" d="M1563.32,439.38H1391.87a9.65,9.65,0,0,1-9.71-10.34l6.55-108.53a11.15,11.15,0,0,1,11-10.33h171.44a9.64,9.64,0,0,1,9.71,10.33L1574.28,429A11.17,11.17,0,0,1,1563.32,439.38Z" transform="translate(-952 -224.61)"/><g class="cls-19"><path class="cls-6" d="M1414.63,244.22c-.23,3.13-2.68,5.68-5.48,5.68s-4.9-2.55-4.67-5.68,2.68-5.68,5.48-5.68S1414.85,241.08,1414.63,244.22Z" transform="translate(-952 -224.61)"/><path class="cls-6" d="M1433.39,244.22c-.22,3.13-2.68,5.68-5.48,5.68s-4.89-2.55-4.67-5.68,2.68-5.68,5.49-5.68S1433.62,241.08,1433.39,244.22Z" transform="translate(-952 -224.61)"/><path class="cls-6" d="M1452.16,244.22c-.23,3.13-2.68,5.68-5.48,5.68s-4.9-2.55-4.67-5.68,2.68-5.68,5.48-5.68S1452.38,241.08,1452.16,244.22Z" transform="translate(-952 -224.61)"/></g><path class="cls-20" d="M1692.63,456.05H1386.78a17.68,17.68,0,0,1-17.8-18.94l11.68-193.61a20.34,20.34,0,0,1,20-18.89h305.85a17.69,17.69,0,0,1,17.8,18.94l-11.68,193.62A20.35,20.35,0,0,1,1692.63,456.05Zm-292-230.48a19.38,19.38,0,0,0-19.07,18l-11.68,193.62a16.73,16.73,0,0,0,16.85,17.93h305.85a19.39,19.39,0,0,0,19.07-18l11.68-193.61a16.72,16.72,0,0,0-16.85-17.93Z" transform="translate(-952 -224.61)"/><path class="cls-8" d="M1565.21,342.87c-1.3,2.76-2.49,5.1-3.81,7.58s-2.67,4.84-4,7.23c-2.81,4.75-5.7,9.45-8.87,14-1.57,2.29-3.21,4.55-4.85,6.81s-3.38,4.46-5.23,6.63a137.1,137.1,0,0,1-11.67,12.69c-1,1-2.21,2-3.31,3a40,40,0,0,1-3.47,2.89l-3.67,2.77s-.66.48-1.12.77-1,.59-1.54.86a15.61,15.61,0,0,1-10.11,1.2,15.45,15.45,0,0,1-6.19-2.87,15.71,15.71,0,0,1-2.47-2.42l-.52-.67-.24-.35-.1-.15-.35-.62-1.37-2.48c-.41-.8-.7-1.56-1-2.34a63.73,63.73,0,0,1-3-8.89,120.46,120.46,0,0,1-2.79-16.79,144.9,144.9,0,0,1-.71-16.57,6.58,6.58,0,0,1,12.91-1.69l.06.22c2.77,9.76,5.65,19.93,9.38,28.6a45.31,45.31,0,0,0,2.95,5.8c.26.39.51.85.76,1.18s.49.58.72.88l.17.22,0,.06-.09-.15-.22-.29a6.39,6.39,0,0,0-1-1.05,6.53,6.53,0,0,0-5.48-1.33,6.46,6.46,0,0,0-1.45.47c-.24.1-.45.24-.68.36s-.56.4-.33.19l2.4-2.33a32.59,32.59,0,0,0,2.37-2.45c.78-.86,1.58-1.66,2.35-2.55a200,200,0,0,0,17-23.89q3.93-6.39,7.68-13l3.69-6.6,3.5-6.48.18-.33a13.18,13.18,0,0,1,23.52,11.86Z" transform="translate(-952 -224.61)"/><path class="cls-21" d="M1486.56,354.36l-9.32-5.31,10-10.23a57.22,57.22,0,0,1,8.11,7.31,5.42,5.42,0,0,1-1.52,8.58h0A7.79,7.79,0,0,1,1486.56,354.36Z" transform="translate(-952 -224.61)"/><path class="cls-21" d="M1475.14,338.09l5-3.61a3.11,3.11,0,0,1,4.29.66l2.78,3.68-10,10.23-3.14-7.18A3.11,3.11,0,0,1,1475.14,338.09Z" transform="translate(-952 -224.61)"/><path class="cls-6" d="M1545.18,334.32a14.16,14.16,0,0,1,11-9.84,85.59,85.59,0,0,1,11.25-1.73c9-.64,23.9-.05,34.16.63,6,.39,12.05,1.23,16.9,2l.18,0a9.83,9.83,0,0,1,8.1,11.28c-2.39,13.8-9.4,37.78-10.16,60.41-1,29.72-.55,46.83-1.08,54l-76.49-1.47C1533.75,377,1540.37,350.76,1545.18,334.32Z" transform="translate(-952 -224.61)"/><path class="cls-8" d="M1620.74,324.29l-.18,0c-5.12-.85-11.53-1.73-17.82-2.15-1.09-.08-2.23-.14-3.4-.21-3.35,13.84-23.26,37.09-29.3,72.37-2.33-29.48-4.14-60.29-.72-72.31a148.83,148.83,0,0,0-16.15,1.37c-5.49,1-10.12,5.38-12.12,11.26-4.69,13.83-13.66,44.81-8.14,121h85c.56-7.57-1.43-23.68,1.64-48.36,3-23.93,7.21-56.46,9.72-71A10.37,10.37,0,0,0,1620.74,324.29Z" transform="translate(-952 -224.61)"/><path class="cls-10" d="M1568.16,451.64a.53.53,0,0,1-.51-.47c-1.8-21.48,1.56-52.34,1.6-52.65a.51.51,0,1,1,1,.11c0,.31-3.38,31.07-1.59,52.45a.5.5,0,0,1-.46.55Z" transform="translate(-952 -224.61)"/><path class="cls-18" d="M1617.75,354.53c-3.16,14.28-1.47,34.07,1.88,52.12,2.52-20.26,5.93-46.56,8.43-62.84C1624.59,341.48,1620.25,343.12,1617.75,354.53Z" transform="translate(-952 -224.61)"/><path class="cls-21" d="M1569.08,322.66c9.92-2.17,11.63-8.28,10.92-15a41.6,41.6,0,0,0-.82-5l12.39-10.11,9.1-7.41c-2.47,11-5.21,30.95,2.27,38.42,0,0-6.1,10-23.11,8.81C1565.46,331.25,1569.08,322.66,1569.08,322.66Z" transform="translate(-952 -224.61)"/><polygon class="cls-5" points="632.15 105.15 629.4 107.76 638.18 111.06 637.04 107.72 632.15 105.15"/><path class="cls-4" d="M1590.87,340.33s-3.45-8.74-6.72-10.57c11.45-3.08,17-9.42,17-9.42l5.22,2.07S1608,332.44,1590.87,340.33Z" transform="translate(-952 -224.61)"/><polygon class="cls-5" points="627.33 104.48 629.4 107.76 620.16 108.56 622.01 105.64 627.33 104.48"/><path class="cls-4" d="M1567.51,337.87a41.75,41.75,0,0,1,11.82-8.78c-5-1.5-5.32-8.42-5.32-8.42l-4.87.93S1560.2,330.3,1567.51,337.87Z" transform="translate(-952 -224.61)"/><path class="cls-11" d="M1579.18,302.58a41.6,41.6,0,0,1,.82,5c4.64-.85,10.81-5.68,11.43-10.41a21.09,21.09,0,0,0,.14-4.74Z" transform="translate(-952 -224.61)"/><path class="cls-8" d="M1564.15,252.58c-4.43,5.46-4,25.14,5.37,25.37S1572.21,242.65,1564.15,252.58Z" transform="translate(-952 -224.61)"/><path class="cls-21" d="M1604.55,266.91c-.94,14.92-.74,23.68-8.26,31.4-11.32,11.6-29.66,4.93-33.18-9.91-3.16-13.37-1.09-35.51,13.47-41.57A20.13,20.13,0,0,1,1604.55,266.91Z" transform="translate(-952 -224.61)"/><path class="cls-8" d="M1597.22,254.49c-9.38,9.31,2.81,16.13-2,21.14,8.84,4.62,5.6,8,5.6,8a11.62,11.62,0,0,0,.09,7.87c10-2.57,28.47-35.68,8.28-40.77C1597.07,256.16,1597.22,254.49,1597.22,254.49Z" transform="translate(-952 -224.61)"/><path class="cls-8" d="M1601.05,261.17c-8.88,1.38-20-2.86-27-6.44s-8,3.18-5.4,5.25c-4.44.16-10.08-3.37-8.68-11.22,1.27-7.17,10.66-13.93,24-7.88,9.44,4.28,21.1-1.35,25.64,3.58S1607,260.25,1601.05,261.17Z" transform="translate(-952 -224.61)"/><path class="cls-8" d="M1607.1,251.46c6-.79,6.22-4.54,4.55-11.14,6.45,9.15,3.87,12,0,14.17C1607.42,253.05,1607.1,251.46,1607.1,251.46Z" transform="translate(-952 -224.61)"/><path class="cls-21" d="M1608.55,278.35a13.55,13.55,0,0,1-6.49,6.67c-3.69,1.65-5.57-1.74-4.57-5.74.9-3.6,3.9-8.8,7.62-8.76S1610.22,274.66,1608.55,278.35Z" transform="translate(-952 -224.61)"/><path class="cls-8" d="M1581.27,271.42c0,1.21-.65,2.2-1.44,2.21s-1.43-1-1.43-2.19.65-2.2,1.44-2.21S1581.27,270.2,1581.27,271.42Z" transform="translate(-952 -224.61)"/><path class="cls-8" d="M1567.59,271.53c0,1.22-.65,2.21-1.44,2.21s-1.43-1-1.43-2.18.65-2.2,1.44-2.21S1567.59,270.32,1567.59,271.53Z" transform="translate(-952 -224.61)"/><path class="cls-22" d="M1572.66,272s-2.77,7-5.81,10.43c2.14,2,5.78,1,5.78,1Z" transform="translate(-952 -224.61)"/><path class="cls-8" d="M1577.57,286.65a10.11,10.11,0,0,0,7-4,.37.37,0,0,0-.11-.5.36.36,0,0,0-.49.1,9.68,9.68,0,0,1-7.84,3.83.34.34,0,0,0-.34.36.36.36,0,0,0,.37.35A10.4,10.4,0,0,0,1577.57,286.65Z" transform="translate(-952 -224.61)"/><path class="cls-8" d="M1587.9,266.59a.59.59,0,0,0,.33-.13.7.7,0,0,0,.13-1,7,7,0,0,0-5.81-2.91.68.68,0,0,0-.63.77.73.73,0,0,0,.78.65,5.54,5.54,0,0,1,4.53,2.33A.69.69,0,0,0,1587.9,266.59Z" transform="translate(-952 -224.61)"/><path class="cls-8" d="M1562.06,267.17a.67.67,0,0,0,.53-.38,5.8,5.8,0,0,1,4-3.28.7.7,0,0,0,.59-.8.74.74,0,0,0-.81-.61h0a7.13,7.13,0,0,0-5.09,4,.73.73,0,0,0,.33,1A.7.7,0,0,0,1562.06,267.17Z" transform="translate(-952 -224.61)"/><path class="cls-8" d="M1631.51,332.91c2.32,4.91,4.27,9.51,6.18,14.34s3.62,9.64,5.3,14.52a239.7,239.7,0,0,1,8.09,30.32c.44,2.65.94,5.25,1.25,8l.27,2,.13,1,.06.51.06.71a31,31,0,0,1,0,5.93,26.78,26.78,0,0,1-4.33,12.09,27.15,27.15,0,0,1-8.67,8.12,36,36,0,0,1-9.21,3.88,48.73,48.73,0,0,1-8.79,1.57,61.24,61.24,0,0,1-8.43.22,65.86,65.86,0,0,1-8.37-.89,6.57,6.57,0,0,1-.33-12.9l.69-.15c2-.43,4.4-1,6.54-1.54s4.33-1.24,6.35-2c4-1.45,7.65-3.39,9.64-5.35a6.33,6.33,0,0,0,1.66-2.52,5.18,5.18,0,0,0,0-2.05,10.16,10.16,0,0,0-.29-1.52l-.68-3.11c-.44-2.19-1.08-4.44-1.64-6.66-1.2-4.48-2.53-9-4.06-13.47s-3.1-9-4.75-13.49-3.42-9-5.2-13.45-3.65-9-5.42-13.19l-.08-.2a13.18,13.18,0,0,1,24-10.78Z" transform="translate(-952 -224.61)"/><path class="cls-21" d="M1598.87,427.8l-8.41,4L1605,437s9.69-3.09,5-8.47l-2.61-.82C1603.19,426.36,1601.13,426.51,1598.87,427.8Z" transform="translate(-952 -224.61)"/><path class="cls-21" d="M1591.58,442.14l6.4,1.21a4.43,4.43,0,0,0,4.7-2.19L1605,437l-14.56-5.17-2,4A4.44,4.44,0,0,0,1591.58,442.14Z" transform="translate(-952 -224.61)"/><g class="cls-23"><path class="cls-6" d="M1691.38,266.28v26.25a6.28,6.28,0,0,1-6.28,6.28h-47.66L1623.05,304a1.83,1.83,0,0,1-2.32-2.39l5.44-14V266.28a6.28,6.28,0,0,1,6.29-6.28h52.64A6.28,6.28,0,0,1,1691.38,266.28Z" transform="translate(-952 -224.61)"/></g><g class="cls-24"><path class="cls-25" d="M1650,280.15a4.55,4.55,0,1,1-4.55-4.54A4.55,4.55,0,0,1,1650,280.15Z" transform="translate(-952 -224.61)"/><path class="cls-25" d="M1664.37,280.15a4.55,4.55,0,1,1-4.55-4.54A4.55,4.55,0,0,1,1664.37,280.15Z" transform="translate(-952 -224.61)"/><path class="cls-25" d="M1678.76,280.15a4.55,4.55,0,1,1-4.55-4.54A4.55,4.55,0,0,1,1678.76,280.15Z" transform="translate(-952 -224.61)"/></g><path class="cls-7" d="M1842.88,1022.31v-100c0-12-88.84-12-88.84,0v100C1754,1031.42,1842.88,1031.42,1842.88,1022.31Z" transform="translate(-952 -224.61)"/><path class="cls-26" d="M1842.88,932.73v5.8c-9.19,2.38-24.13,5.14-44.08,5.14-20.55,0-35.71-2.93-44.76-5.36v-5.82c8.45,2.39,23.75,5.6,44.76,5.6C1819.19,938.09,1834.23,935.08,1842.88,932.73Z" transform="translate(-952 -224.61)"/><ellipse class="cls-26" cx="846.46" cy="696.62" rx="39.79" ry="5.17"/><path class="cls-27" d="M1798.62,893.83s.4-.09,1.13-.3c6.25-1.79,36.48-12.17,41-46.67,4-30.76,8.31-50.24,16-60.87a1.88,1.88,0,0,0-2.26-2.84c-27,11.67-104.06,51.43-57.82,108.38C1797.32,892.3,1798,893.06,1798.62,893.83Z" transform="translate(-952 -224.61)"/><path class="cls-28" d="M1797.68,921.23c-.18-3.77,2.32-29.6,2.32-29.6h0c5-36,31.44-77.56,31.78-78.08a1.61,1.61,0,1,0-2.71-1.74,289.17,289.17,0,0,0-20,38.41q-9.55,22.38-12.12,40,0,.24-.09.63c0,.22-.06.46-.09.74-.43,3.64-1.9,29.68-1.9,29.68C1795.59,922.7,1795.93,922.31,1797.68,921.23Z" transform="translate(-952 -224.61)"/><path class="cls-29" d="M1795.11,911.41,1794,911c-6.13-2.18-35.66-14.41-38-49.13-2.13-30.95-5.17-50.66-12.2-61.74a1.88,1.88,0,0,1,2.43-2.7c26.21,13.32,100.67,57.78,51,111.76C1796.51,910,1795.82,910.68,1795.11,911.41Z" transform="translate(-952 -224.61)"/><path class="cls-27" d="M1793.87,921.63a120.89,120.89,0,0,0,0-12.51h0c-2.71-36.24-26.57-79.36-26.88-79.9a1.62,1.62,0,0,1,.62-2.19,1.6,1.6,0,0,1,2.19.62,290.24,290.24,0,0,1,17.63,39.59c5.43,15.28,8.65,28.85,9.63,40.62,0,.16,0,.38,0,.64s0,.47.05.74c.21,3.67.52,12,.52,12C1796.81,922.65,1795.55,922.81,1793.87,921.63Z" transform="translate(-952 -224.61)"/><path class="cls-30" d="M1261.32,310.75a1.67,1.67,0,0,0,.8,0c2.88-.71,4.55-1,4.57-1A1.51,1.51,0,0,0,1268,308a1.6,1.6,0,0,0-1.87-1.21c-.07,0-1.79.3-4.81,1a1.5,1.5,0,0,0-1.14,1.85A1.55,1.55,0,0,0,1261.32,310.75Z" transform="translate(-952 -224.61)"/><path class="cls-30" d="M1168,379.86c-1.5,2.56-2.94,5.21-4.28,7.89a1.66,1.66,0,0,1-1.85.82,1.42,1.42,0,0,1-.29-.1,1.47,1.47,0,0,1-.77-2c1.37-2.73,2.85-5.44,4.37-8a1.66,1.66,0,0,1,2.18-.6A1.46,1.46,0,0,1,1168,379.86Z" transform="translate(-952 -224.61)"/><path class="cls-30" d="M1159.94,395.87c-1.16,2.71-2.26,5.51-3.27,8.32a1.63,1.63,0,0,1-1.92,1l-.12,0a1.5,1.5,0,0,1-1-1.92c1-2.86,2.16-5.71,3.34-8.47a1.65,1.65,0,0,1,2.09-.84A1.48,1.48,0,0,1,1159.94,395.87Z" transform="translate(-952 -224.61)"/><path class="cls-30" d="M1146.32,440a1.51,1.51,0,0,1-1.2-1.65c.42-3,.9-6,1.44-8.92a1.61,1.61,0,0,1,1.86-1.23,1.52,1.52,0,0,1,1.31,1.75c-.54,2.87-1,5.83-1.42,8.79a1.59,1.59,0,0,1-1.8,1.3Z" transform="translate(-952 -224.61)"/><path class="cls-30" d="M1152.77,410.81a1.49,1.49,0,0,1,1.12,1.86c-.4,1.32-.78,2.66-1.13,4-.41,1.52-.81,3.08-1.18,4.63a1.61,1.61,0,0,1-1.92,1.14h0a1.51,1.51,0,0,1-1.17-1.8c.37-1.57.78-3.15,1.19-4.7.37-1.34.75-2.71,1.15-4.06a1.62,1.62,0,0,1,1.94-1.05Z" transform="translate(-952 -224.61)"/><path class="cls-30" d="M1172.79,372.23a1.65,1.65,0,0,1-1.75.65,1.54,1.54,0,0,1-.46-.19,1.45,1.45,0,0,1-.5-2.08c1.71-2.54,3.53-5.06,5.4-7.49a1.68,1.68,0,0,1,2.25-.33,1.45,1.45,0,0,1,.35,2.1C1176.25,367.27,1174.47,369.74,1172.79,372.23Z" transform="translate(-952 -224.61)"/><path class="cls-30" d="M1253.1,313.31c-2.93.94-5.9,2-8.84,3.13a1.64,1.64,0,0,1-1,.07,1.59,1.59,0,0,1-1.1-.89,1.49,1.49,0,0,1,.88-2c3-1.16,6-2.23,9-3.19a1.63,1.63,0,0,1,2,.94A1.48,1.48,0,0,1,1253.1,313.31Z" transform="translate(-952 -224.61)"/><path class="cls-30" d="M1227.25,324.16a1.68,1.68,0,0,1-1.18.15,1.62,1.62,0,0,1-1-.73,1.46,1.46,0,0,1,.62-2.05c2.8-1.46,5.68-2.87,8.56-4.18a1.65,1.65,0,0,1,2.14.7,1.47,1.47,0,0,1-.75,2C1232.81,321.35,1230,322.73,1227.25,324.16Z" transform="translate(-952 -224.61)"/><path class="cls-30" d="M1196.78,345a1.66,1.66,0,0,1-1.49.36,1.63,1.63,0,0,1-.78-.43,1.45,1.45,0,0,1,.08-2.13c2.33-2.05,4.76-4.06,7.24-6a1.67,1.67,0,0,1,2.26.21,1.44,1.44,0,0,1-.22,2.12C1201.45,341,1199.07,343,1196.78,345Z" transform="translate(-952 -224.61)"/><path class="cls-30" d="M1211.34,333.71a1.7,1.7,0,0,1-1.34.24,1.6,1.6,0,0,1-.91-.57,1.45,1.45,0,0,1,.36-2.11c2.57-1.76,5.25-3.48,8-5.1a1.67,1.67,0,0,1,2.22.46,1.45,1.45,0,0,1-.49,2.08C1216.49,330.3,1213.86,332,1211.34,333.71Z" transform="translate(-952 -224.61)"/><path class="cls-30" d="M1183.86,357.89a1.67,1.67,0,0,1-1.63.5,1.53,1.53,0,0,1-.63-.3,1.44,1.44,0,0,1-.22-2.12c2-2.32,4.19-4.6,6.38-6.79a1.68,1.68,0,0,1,2.27-.06,1.44,1.44,0,0,1,.07,2.13C1188,353.39,1185.86,355.62,1183.86,357.89Z" transform="translate(-952 -224.61)"/><polygon class="cls-7" points="310.91 75.92 307.67 50.79 392.82 63 310.91 75.92"/><polygon class="cls-31" points="392.83 63 314.16 82.33 313.95 82.38 310 86.91 310.91 75.92 392.83 63"/><polygon class="cls-31" points="310 86.91 317.07 86.82 313.95 82.38 310 86.91"/><polygon class="cls-7" points="323.85 79.95 313.95 82.38 330.05 105.31 392.82 63 323.85 79.95"/><path class="cls-2" d="M1815,510.66v35.61a8.52,8.52,0,0,1-8.53,8.52h-64.65l-19.51,7a2.49,2.49,0,0,1-3.16-3.24l7.39-19.06V510.66a8.52,8.52,0,0,1,8.53-8.52h71.4A8.53,8.53,0,0,1,1815,510.66Z" transform="translate(-952 -224.61)"/><g class="cls-24"><path class="cls-25" d="M1761,530.15a4.55,4.55,0,1,1-4.55-4.54A4.55,4.55,0,0,1,1761,530.15Z" transform="translate(-952 -224.61)"/><path class="cls-25" d="M1775.37,530.15a4.55,4.55,0,1,1-4.55-4.54A4.55,4.55,0,0,1,1775.37,530.15Z" transform="translate(-952 -224.61)"/><path class="cls-25" d="M1789.76,530.15a4.55,4.55,0,1,1-4.55-4.54A4.55,4.55,0,0,1,1789.76,530.15Z" transform="translate(-952 -224.61)"/></g></g></g></svg>