<svg id="Layer_6" data-name="Layer 6" xmlns="http://www.w3.org/2000/svg" viewBox="0 0 299.67 440.77"><title>pooling-black</title><path d="M386.83,197.49H143.61v-43h162.6A18.83,18.83,0,0,0,325,135.68V55.05a18.83,18.83,0,0,0-18.82-18.82H124.79A18.83,18.83,0,0,0,106,55.05V458.18A18.82,18.82,0,0,0,124.79,477H326.36a18.82,18.82,0,0,0,18.82-18.82V377.56a18.82,18.82,0,0,0-18.82-18.82H143.61v-43H386.83a18.83,18.83,0,0,0,18.82-18.82V216.3A18.82,18.82,0,0,0,386.83,197.49ZM143.61,73.87H287.39v43H143.61Zm163.94,322.5v43H143.61v-43ZM368,278.11H143.61v-43H368Z" transform="translate(-105.97 -36.23)"/></svg>