<svg id="Layer_7" data-name="Layer 7" xmlns="http://www.w3.org/2000/svg" viewBox="0 0 425.79 366.1"><defs><style>.cls-1{fill:#fff;}</style></defs><title>screen-share-whit</title><path class="cls-1" d="M468.39,283.65h-59V264.58h40V97.74A4.78,4.78,0,0,0,444.56,93H191.9a4.77,4.77,0,0,0-4.76,4.77v90.57H168.07V97.74A23.86,23.86,0,0,1,191.9,73.9H444.56a23.86,23.86,0,0,1,23.83,23.84Z" transform="translate(-43.6 -72.9)"/><path class="cls-1" d="M469.39,284.65h-61V263.58h40V97.74A3.77,3.77,0,0,0,444.56,94H191.9a3.77,3.77,0,0,0-3.76,3.77v91.57H167.07V97.74A24.86,24.86,0,0,1,191.9,72.9H444.56a24.86,24.86,0,0,1,24.83,24.84Zm-59-2h57V97.74A22.86,22.86,0,0,0,444.56,74.9H191.9a22.86,22.86,0,0,0-22.83,22.84v89.57h17.07V97.74A5.77,5.77,0,0,1,191.9,92H444.56a5.78,5.78,0,0,1,5.77,5.77V265.58h-40Z" transform="translate(-43.6 -72.9)"/><path class="cls-1" d="M382.72,386.73H90.89a26.68,26.68,0,0,1-26.65-26.65V206.48a26.68,26.68,0,0,1,26.65-26.65H382.72a26.68,26.68,0,0,1,26.64,26.65v153.6A26.68,26.68,0,0,1,382.72,386.73ZM90.89,198.9a7.59,7.59,0,0,0-7.58,7.58v153.6a7.59,7.59,0,0,0,7.58,7.58H382.72a7.58,7.58,0,0,0,7.57-7.58V206.48a7.58,7.58,0,0,0-7.57-7.58Z" transform="translate(-43.6 -72.9)"/><path class="cls-1" d="M382.72,387.73H90.89a27.68,27.68,0,0,1-27.65-27.65V206.48a27.68,27.68,0,0,1,27.65-27.65H382.72a27.68,27.68,0,0,1,27.64,27.65v153.6A27.67,27.67,0,0,1,382.72,387.73ZM90.89,180.83a25.68,25.68,0,0,0-25.65,25.65v153.6a25.68,25.68,0,0,0,25.65,25.65H382.72a25.67,25.67,0,0,0,25.64-25.65V206.48a25.67,25.67,0,0,0-25.64-25.65ZM382.72,368.66H90.89a8.59,8.59,0,0,1-8.58-8.58V206.48a8.59,8.59,0,0,1,8.58-8.58H382.72a8.58,8.58,0,0,1,8.57,8.58v153.6A8.58,8.58,0,0,1,382.72,368.66ZM90.89,199.9a6.59,6.59,0,0,0-6.58,6.58v153.6a6.59,6.59,0,0,0,6.58,6.58H382.72a6.58,6.58,0,0,0,6.57-6.58V206.48a6.58,6.58,0,0,0-6.57-6.58Z" transform="translate(-43.6 -72.9)"/><path class="cls-1" d="M397.85,438H74.64c-16.56,0-30-12.53-30-27.94v-42.4H170.05l29.55,16.26h72.79l23.83-16.26H427.88v42.4C427.88,425.47,414.41,438,397.85,438ZM63.67,386.73v23.33c0,4.89,4.92,8.87,11,8.87H397.85c6,0,11-4,11-8.87V386.73H302.11L278.27,403H194.7l-29.56-16.26Z" transform="translate(-43.6 -72.9)"/><path class="cls-1" d="M397.84,439H74.64c-17.11,0-31-13-31-28.94v-43.4H170.3l29.56,16.26h72.22l23.84-16.26h133v43.4C428.88,426,415,439,397.84,439ZM45.6,368.66v41.4c0,14.85,13,26.94,29,26.94h323.2c16,0,29-12.09,29-26.94v-41.4H296.53L272.7,384.92H199.35l-29.56-16.26Zm352.24,51.27H74.64c-6.6,0-12-4.43-12-9.87V385.73H165.4L195,402h83l23.83-16.26h108v24.33C409.81,415.5,404.44,419.93,397.84,419.93ZM64.67,387.73v22.33c0,4.34,4.47,7.87,10,7.87h323.2c5.5,0,10-3.53,10-7.87V387.73H302.42L278.58,404H194.44l-29.55-16.26Z" transform="translate(-43.6 -72.9)"/></svg>