<svg id="Layer_3" data-name="Layer 3" xmlns="http://www.w3.org/2000/svg" viewBox="0 0 279.81 394.38"><title>audio-black</title><rect x="67.28" width="145.26" height="271.15" rx="72.63" ry="72.63"/><path d="M256.5,392.1c-44.35,0-80.94-17.43-105.82-50.39-22.3-29.55-34.09-69.93-34.09-116.78a13.63,13.63,0,0,1,27.26,0c0,67.64,29.59,139.91,112.65,139.91s112.65-72.27,112.65-139.91a13.63,13.63,0,0,1,27.26,0c0,46.85-11.79,87.23-34.09,116.78C337.44,374.67,300.85,392.1,256.5,392.1Z" transform="translate(-116.59 -58.62)"/><path d="M342.3,452.48H170.7a13.63,13.63,0,1,1,0-27.26H342.3a13.63,13.63,0,1,1,0,27.26Z" transform="translate(-116.59 -58.62)"/><path d="M256.5,453a13.63,13.63,0,0,1-13.63-13.63v-60.9a13.63,13.63,0,1,1,27.26,0v60.9A13.63,13.63,0,0,1,256.5,453Z" transform="translate(-116.59 -58.62)"/></svg>