<svg id="video-conference" xmlns="http://www.w3.org/2000/svg" viewBox="0 0 430.36 430.34"><defs><style>.cls-1{fill:none;}</style></defs><title>chat-black</title><path class="cls-1" d="M71.92,270.91a143.27,143.27,0,1,1,265.26-73.06A145.83,145.83,0,0,1,190,339H57.79l13.92-23.64A43.09,43.09,0,0,0,71.92,270.91Z" transform="translate(-40.1 -41.66)"/><path d="M438.68,393.72A143.25,143.25,0,0,0,335.73,176.67a143,143,0,0,1,1.44,21.18A145.83,145.83,0,0,1,190,339H175.07a146.54,146.54,0,0,0,145.52,122.8H452.8l-13.91-23.64A43.09,43.09,0,0,1,438.68,393.72Z" transform="translate(-40.1 -41.66)"/><path d="M447.69,432.91a32.62,32.62,0,0,1,0-33.77A153.51,153.51,0,0,0,345.35,167.86a153.47,153.47,0,0,0-45.84-84A153.6,153.6,0,0,0,63.23,276.24a32.67,32.67,0,0,1,0,33.77L49,333.75a10.23,10.23,0,0,0,8.8,15.45H166.69A157.08,157.08,0,0,0,320.19,472H452.81a10.24,10.24,0,0,0,10.24-10.23,10.08,10.08,0,0,0-1.44-5.22ZM75.7,328.73l4.91-8.29a53.07,53.07,0,0,0,0-54.95,133,133,0,1,1,246.32-67.85A135.58,135.58,0,0,1,190,328.73Zm244.89,122.8a136.63,136.63,0,0,1-133-102.33H190A156.16,156.16,0,0,0,347.4,198v-8.9a133,133,0,0,1,82.89,199.24,53.12,53.12,0,0,0,0,54.95l4.91,8.29Z" transform="translate(-40.1 -41.66)"/><line x1="58" y1="121.78" x2="184.08" y2="121.78"/><rect x="58" y="113.37" width="126.08" height="16.81"/><line x1="58" y1="197.43" x2="184.08" y2="197.43"/><rect x="58" y="189.02" width="126.08" height="16.81"/><line x1="58" y1="160.45" x2="242.92" y2="160.45"/><rect x="58" y="152.04" width="184.92" height="16.81"/></svg>