<svg id="Layer_4" data-name="Layer 4" xmlns="http://www.w3.org/2000/svg" viewBox="0 0 436.03 384.84"><title>emojis-black</title><path d="M19,157.35H113.1a.65.65,0,0,1,.65.65V365.24a.65.65,0,0,1-.65.65H19a0,0,0,0,1,0,0V157.35A0,0,0,0,1,19,157.35Z"/><path d="M474,238.46a38,38,0,0,0-37.91-37.91H365.34c11-28.06,15.39-61.09,14.53-90.49a107.26,107.26,0,0,0-.67-10.9,37.91,37.91,0,0,0-75.81.91v9.48c0,60-77,93.63-135.07,108.08a28.49,28.49,0,0,0-26.07-17.08H47.46A9.47,9.47,0,0,0,38,210V437.52A9.47,9.47,0,0,0,47.46,447h94.79a28.49,28.49,0,0,0,26-16.88c4.81,1.23,9.27,2.4,13.39,3.48,33.1,8.64,51.33,13.4,95.67,13.4H379.23a37.89,37.89,0,0,0,31.49-59,38,38,0,0,0,19-56.9,37.9,37.9,0,0,0,18.89-56.85A37.93,37.93,0,0,0,474,238.46ZM151.73,418.56a9.49,9.49,0,0,1-9.48,9.48H56.94V219.51h85.31a9.49,9.49,0,0,1,9.48,9.48ZM436.1,257.42H388.7a9.48,9.48,0,0,0,0,19h28.44a19,19,0,1,1,0,37.92H369.75a9.48,9.48,0,1,0,0,18.95h28.43a19,19,0,0,1,0,37.92H350.79a9.48,9.48,0,1,0,0,19h28.44a19,19,0,0,1,0,37.91H277.29c-41.9,0-58.27-4.27-90.87-12.79-4.78-1.24-10-2.61-15.73-4.07V236.59c68.6-16.34,151.66-56.22,151.66-127v-9.48a19,19,0,0,1,37.92,0v0c0,4.12,5.14,54.68-15.48,100.48H312.87a9.48,9.48,0,0,0,0,19H436.1a19,19,0,1,1,0,37.91Z" transform="translate(-37.99 -62.16)"/></svg>